<mxfile host="app.diagrams.net" agent="Mozilla/5.0 (X11; Linux x86_64; rv:100.0) Gecko/20100101 Firefox/100.0" version="26.0.14">
  <diagram name="Pagina-1" id="a7h8UTaqn2wZmqNVQFHL">
    <mxGraphModel dx="2123" dy="795" grid="1" gridSize="10" guides="1" tooltips="1" connect="1" arrows="1" fold="1" page="1" pageScale="1" pageWidth="827" pageHeight="1169" math="0" shadow="0">
      <root>
        <mxCell id="0" />
        <mxCell id="1" parent="0" />
        <mxCell id="0MsuBsP3Z2Lq1gyuhT85-3" value="" style="edgeStyle=orthogonalEdgeStyle;rounded=0;orthogonalLoop=1;jettySize=auto;html=1;" edge="1" parent="1" source="0MsuBsP3Z2Lq1gyuhT85-1" target="0MsuBsP3Z2Lq1gyuhT85-2">
          <mxGeometry relative="1" as="geometry" />
        </mxCell>
        <mxCell id="0MsuBsP3Z2Lq1gyuhT85-1" value="start" style="ellipse;whiteSpace=wrap;html=1;aspect=fixed;" vertex="1" parent="1">
          <mxGeometry x="360" y="40" width="80" height="80" as="geometry" />
        </mxCell>
        <mxCell id="0MsuBsP3Z2Lq1gyuhT85-6" value="" style="edgeStyle=orthogonalEdgeStyle;rounded=0;orthogonalLoop=1;jettySize=auto;html=1;" edge="1" parent="1" source="0MsuBsP3Z2Lq1gyuhT85-2" target="0MsuBsP3Z2Lq1gyuhT85-5">
          <mxGeometry relative="1" as="geometry" />
        </mxCell>
        <mxCell id="0MsuBsP3Z2Lq1gyuhT85-2" value="read x" style="shape=parallelogram;perimeter=parallelogramPerimeter;whiteSpace=wrap;html=1;fixedSize=1;" vertex="1" parent="1">
          <mxGeometry x="340" y="150" width="120" height="60" as="geometry" />
        </mxCell>
        <mxCell id="0MsuBsP3Z2Lq1gyuhT85-8" value="" style="edgeStyle=orthogonalEdgeStyle;rounded=0;orthogonalLoop=1;jettySize=auto;html=1;" edge="1" parent="1" source="0MsuBsP3Z2Lq1gyuhT85-5" target="0MsuBsP3Z2Lq1gyuhT85-7">
          <mxGeometry relative="1" as="geometry" />
        </mxCell>
        <mxCell id="0MsuBsP3Z2Lq1gyuhT85-10" value="" style="edgeStyle=orthogonalEdgeStyle;rounded=0;orthogonalLoop=1;jettySize=auto;html=1;" edge="1" parent="1" source="0MsuBsP3Z2Lq1gyuhT85-5" target="0MsuBsP3Z2Lq1gyuhT85-9">
          <mxGeometry relative="1" as="geometry" />
        </mxCell>
        <mxCell id="0MsuBsP3Z2Lq1gyuhT85-5" value="if x==1 " style="rhombus;whiteSpace=wrap;html=1;" vertex="1" parent="1">
          <mxGeometry x="360" y="240" width="80" height="80" as="geometry" />
        </mxCell>
        <mxCell id="0MsuBsP3Z2Lq1gyuhT85-7" value="write xst" style="shape=parallelogram;perimeter=parallelogramPerimeter;whiteSpace=wrap;html=1;fixedSize=1;" vertex="1" parent="1">
          <mxGeometry x="500" y="350" width="120" height="60" as="geometry" />
        </mxCell>
        <mxCell id="0MsuBsP3Z2Lq1gyuhT85-12" value="" style="edgeStyle=orthogonalEdgeStyle;rounded=0;orthogonalLoop=1;jettySize=auto;html=1;" edge="1" parent="1" source="0MsuBsP3Z2Lq1gyuhT85-9" target="0MsuBsP3Z2Lq1gyuhT85-11">
          <mxGeometry relative="1" as="geometry" />
        </mxCell>
        <mxCell id="0MsuBsP3Z2Lq1gyuhT85-14" value="" style="edgeStyle=orthogonalEdgeStyle;rounded=0;orthogonalLoop=1;jettySize=auto;html=1;" edge="1" parent="1" source="0MsuBsP3Z2Lq1gyuhT85-9" target="0MsuBsP3Z2Lq1gyuhT85-13">
          <mxGeometry relative="1" as="geometry" />
        </mxCell>
        <mxCell id="0MsuBsP3Z2Lq1gyuhT85-9" value="if x==2 " style="rhombus;whiteSpace=wrap;html=1;" vertex="1" parent="1">
          <mxGeometry x="200" y="340" width="80" height="80" as="geometry" />
        </mxCell>
        <mxCell id="0MsuBsP3Z2Lq1gyuhT85-11" value="write xnd" style="shape=parallelogram;perimeter=parallelogramPerimeter;whiteSpace=wrap;html=1;fixedSize=1;" vertex="1" parent="1">
          <mxGeometry x="340" y="440" width="120" height="60" as="geometry" />
        </mxCell>
        <mxCell id="0MsuBsP3Z2Lq1gyuhT85-16" value="" style="edgeStyle=orthogonalEdgeStyle;rounded=0;orthogonalLoop=1;jettySize=auto;html=1;" edge="1" parent="1" source="0MsuBsP3Z2Lq1gyuhT85-13" target="0MsuBsP3Z2Lq1gyuhT85-15">
          <mxGeometry relative="1" as="geometry" />
        </mxCell>
        <mxCell id="0MsuBsP3Z2Lq1gyuhT85-18" value="" style="edgeStyle=orthogonalEdgeStyle;rounded=0;orthogonalLoop=1;jettySize=auto;html=1;" edge="1" parent="1" source="0MsuBsP3Z2Lq1gyuhT85-13" target="0MsuBsP3Z2Lq1gyuhT85-17">
          <mxGeometry relative="1" as="geometry" />
        </mxCell>
        <mxCell id="0MsuBsP3Z2Lq1gyuhT85-13" value="if x==3" style="rhombus;whiteSpace=wrap;html=1;" vertex="1" parent="1">
          <mxGeometry x="40" y="430" width="80" height="80" as="geometry" />
        </mxCell>
        <mxCell id="0MsuBsP3Z2Lq1gyuhT85-21" style="edgeStyle=orthogonalEdgeStyle;rounded=0;orthogonalLoop=1;jettySize=auto;html=1;entryX=0.65;entryY=1;entryDx=0;entryDy=0;entryPerimeter=0;" edge="1" parent="1" source="0MsuBsP3Z2Lq1gyuhT85-15" target="0MsuBsP3Z2Lq1gyuhT85-19">
          <mxGeometry relative="1" as="geometry">
            <mxPoint x="80" y="760" as="targetPoint" />
            <Array as="points">
              <mxPoint x="240" y="640" />
            </Array>
          </mxGeometry>
        </mxCell>
        <mxCell id="0MsuBsP3Z2Lq1gyuhT85-15" value="write xrd" style="shape=parallelogram;perimeter=parallelogramPerimeter;whiteSpace=wrap;html=1;fixedSize=1;" vertex="1" parent="1">
          <mxGeometry x="180" y="540" width="120" height="60" as="geometry" />
        </mxCell>
        <mxCell id="0MsuBsP3Z2Lq1gyuhT85-20" value="" style="edgeStyle=orthogonalEdgeStyle;rounded=0;orthogonalLoop=1;jettySize=auto;html=1;" edge="1" parent="1" source="0MsuBsP3Z2Lq1gyuhT85-17" target="0MsuBsP3Z2Lq1gyuhT85-19">
          <mxGeometry relative="1" as="geometry">
            <Array as="points">
              <mxPoint x="-80" y="640" />
            </Array>
          </mxGeometry>
        </mxCell>
        <mxCell id="0MsuBsP3Z2Lq1gyuhT85-17" value="write xth" style="shape=parallelogram;perimeter=parallelogramPerimeter;whiteSpace=wrap;html=1;fixedSize=1;" vertex="1" parent="1">
          <mxGeometry x="-140" y="540" width="120" height="60" as="geometry" />
        </mxCell>
        <mxCell id="0MsuBsP3Z2Lq1gyuhT85-19" value="" style="shape=waypoint;sketch=0;size=6;pointerEvents=1;points=[];fillColor=default;resizable=0;rotatable=0;perimeter=centerPerimeter;snapToPoint=1;" vertex="1" parent="1">
          <mxGeometry x="70" y="630" width="20" height="20" as="geometry" />
        </mxCell>
        <mxCell id="0MsuBsP3Z2Lq1gyuhT85-33" value="" style="edgeStyle=orthogonalEdgeStyle;rounded=0;orthogonalLoop=1;jettySize=auto;html=1;" edge="1" parent="1" source="0MsuBsP3Z2Lq1gyuhT85-27" target="0MsuBsP3Z2Lq1gyuhT85-32">
          <mxGeometry relative="1" as="geometry" />
        </mxCell>
        <mxCell id="0MsuBsP3Z2Lq1gyuhT85-27" value="" style="shape=waypoint;sketch=0;size=6;pointerEvents=1;points=[];fillColor=none;resizable=0;rotatable=0;perimeter=centerPerimeter;snapToPoint=1;" vertex="1" parent="1">
          <mxGeometry x="390" y="790" width="20" height="20" as="geometry" />
        </mxCell>
        <mxCell id="0MsuBsP3Z2Lq1gyuhT85-32" value="end" style="ellipse;whiteSpace=wrap;html=1;fillColor=none;sketch=0;pointerEvents=1;resizable=0;" vertex="1" parent="1">
          <mxGeometry x="360" y="840" width="80" height="80" as="geometry" />
        </mxCell>
        <mxCell id="0MsuBsP3Z2Lq1gyuhT85-38" style="edgeStyle=orthogonalEdgeStyle;rounded=0;orthogonalLoop=1;jettySize=auto;html=1;" edge="1" parent="1" source="0MsuBsP3Z2Lq1gyuhT85-24" target="0MsuBsP3Z2Lq1gyuhT85-27">
          <mxGeometry relative="1" as="geometry">
            <Array as="points">
              <mxPoint x="240" y="800" />
            </Array>
          </mxGeometry>
        </mxCell>
        <mxCell id="0MsuBsP3Z2Lq1gyuhT85-24" value="" style="shape=waypoint;sketch=0;size=6;pointerEvents=1;points=[];fillColor=none;resizable=0;rotatable=0;perimeter=centerPerimeter;snapToPoint=1;" vertex="1" parent="1">
          <mxGeometry x="230" y="710" width="20" height="20" as="geometry" />
        </mxCell>
        <mxCell id="0MsuBsP3Z2Lq1gyuhT85-35" style="edgeStyle=orthogonalEdgeStyle;rounded=0;orthogonalLoop=1;jettySize=auto;html=1;entryX=0.4;entryY=0.75;entryDx=0;entryDy=0;entryPerimeter=0;exitX=0.5;exitY=1;exitDx=0;exitDy=0;" edge="1" parent="1" source="0MsuBsP3Z2Lq1gyuhT85-11" target="0MsuBsP3Z2Lq1gyuhT85-24">
          <mxGeometry relative="1" as="geometry">
            <Array as="points">
              <mxPoint x="400" y="720" />
            </Array>
          </mxGeometry>
        </mxCell>
        <mxCell id="0MsuBsP3Z2Lq1gyuhT85-36" style="edgeStyle=orthogonalEdgeStyle;rounded=0;orthogonalLoop=1;jettySize=auto;html=1;entryX=0.05;entryY=0.5;entryDx=0;entryDy=0;entryPerimeter=0;" edge="1" parent="1" source="0MsuBsP3Z2Lq1gyuhT85-19" target="0MsuBsP3Z2Lq1gyuhT85-24">
          <mxGeometry relative="1" as="geometry">
            <Array as="points">
              <mxPoint x="80" y="720" />
            </Array>
          </mxGeometry>
        </mxCell>
        <mxCell id="0MsuBsP3Z2Lq1gyuhT85-37" style="edgeStyle=orthogonalEdgeStyle;rounded=0;orthogonalLoop=1;jettySize=auto;html=1;entryX=1;entryY=0.75;entryDx=0;entryDy=0;entryPerimeter=0;" edge="1" parent="1" source="0MsuBsP3Z2Lq1gyuhT85-7" target="0MsuBsP3Z2Lq1gyuhT85-27">
          <mxGeometry relative="1" as="geometry">
            <Array as="points">
              <mxPoint x="560" y="800" />
            </Array>
          </mxGeometry>
        </mxCell>
      </root>
    </mxGraphModel>
  </diagram>
</mxfile>
